<svg xmlns="http://www.w3.org/2000/svg" width="72.298" height="43.591" viewBox="0 0 72.298 43.591">
  <g id="Group_2126" data-name="Group 2126" transform="translate(-68.596 -47.895)">
    <g id="Group_3262" data-name="Group 3262" transform="translate(68.596 47.895)" opacity="0.3">
      <g id="Group_302" data-name="Group 302" transform="translate(0 0)">
        <path id="Path_309" data-name="Path 309" d="M34.41,34.679a26.929,26.929,0,0,1,2.38-11.057A53.071,53.071,0,0,1,42.243,14a27.638,27.638,0,0,0-4.327-3.254,12.009,12.009,0,0,0-12.01,20.8A35.629,35.629,0,0,0,34.41,34.679Zm12.665,9.863a61.627,61.627,0,0,1-14-1.769,44.452,44.452,0,0,1-11.256-4.149A20.186,20.186,0,1,1,42,3.661a48.4,48.4,0,0,1,11.1,9.731A52.451,52.451,0,0,0,44.322,26.8c-2.087,4.947-2.3,9.1-.623,12,1.555,2.693,4.718,4.466,9.4,5.269A35.879,35.879,0,0,1,47.074,44.542Z" transform="translate(-11.727 -0.952)" fill="#dcdcdc"/>
        <path id="Path_310" data-name="Path 310" d="M62.236,13.577c-6.15,3.55-14.144,14.041-15.653,19.127,5.159,1.236,18.249-.446,24.391-3.993a8.738,8.738,0,1,0-8.738-15.135ZM56.512,3.662A20.186,20.186,0,0,1,76.7,38.625c-9.655,5.574-35.111,9.836-40.685.181S46.857,9.237,56.512,3.662Z" transform="translate(-14.492 -0.953)" fill="#dcdcdc"/>
      </g>
    </g>
    <g id="Group_303" data-name="Group 303" transform="translate(90.508 54)">
      <circle id="Ellipse_51" data-name="Ellipse 51" cx="15" cy="15" r="15" transform="translate(0.492)" fill="#55a747"/>
      <g id="Group_110" data-name="Group 110" transform="translate(7 7)">
        <rect id="Rectangle_42" data-name="Rectangle 42" width="16" height="16" transform="translate(0.492)" fill="#fff" opacity="0"/>
        <g id="Group_108" data-name="Group 108" transform="translate(2 3)">
          <rect id="Rectangle_10" data-name="Rectangle 10" width="12" height="2" rx="1" transform="translate(0.492 5)" fill="#fff"/>
          <rect id="Rectangle_11" data-name="Rectangle 11" width="12" height="2" rx="1" transform="translate(7.492) rotate(90)" fill="#fff"/>
        </g>
      </g>
    </g>
  </g>
</svg>
