<svg xmlns="http://www.w3.org/2000/svg" xmlns:xlink="http://www.w3.org/1999/xlink" width="377" height="267" viewBox="0 0 377 267">
  <defs>
    <clipPath id="clip-path">
      <rect id="Rectangle_198" data-name="Rectangle 198" width="151" height="92" transform="translate(-0.328 -0.421)" fill="#fff"/>
    </clipPath>
  </defs>
  <g id="Group_2574" data-name="Group 2574" transform="translate(-293 -308)">
    <g id="Mask_Group_1" data-name="Mask Group 1" transform="translate(405.328 308.421)" clip-path="url(#clip-path)">
      <g id="Group_3261" transform="translate(2.423 -13.218)">
        <g id="Subtraction_21" transform="translate(0 14.876)">
          <path id="Path_2477" data-name="Path 2477" d="M588.3,318.731a124.376,124.376,0,0,1-28.23-3.568,89.645,89.645,0,0,1-22.7-8.366,40.705,40.705,0,1,1,40.7-70.5,97.468,97.468,0,0,1,22.377,19.62,105.692,105.692,0,0,0-17.7,27.04c-4.208,9.975-4.643,18.344-1.256,24.2,3.136,5.431,9.513,9.005,18.958,10.625A72.166,72.166,0,0,1,588.3,318.731Z" transform="translate(-517.008 -230.833)" fill="none"/>
          <path id="Path_2478" data-name="Path 2478" d="M562.773,298.839c-.135-6.163,1.118-13.569,4.8-22.294a106.992,106.992,0,0,1,11-19.409,55.763,55.763,0,0,0-8.725-6.562,24.214,24.214,0,1,0-24.217,41.938c3.927,2.272,10.129,4.554,17.147,6.328m25.536,19.887a124.26,124.26,0,0,1-28.23-3.568c-9.1-2.2-17.16-5.17-22.7-8.366a40.713,40.713,0,0,1,.3-70.676,40.679,40.679,0,0,1,40.4.178c6.7,3.868,14.855,11.02,22.377,19.62-7.845,8.973-14.13,18.572-17.7,27.036-4.207,9.975-4.643,18.344-1.256,24.2,3.136,5.431,9.513,9.005,18.957,10.625A72.338,72.338,0,0,1,588.309,318.727Z" transform="translate(-517.014 -230.829)" fill="#ffd960"/>
        </g>
        <g id="Path_2466" transform="translate(23.067 55.965) rotate(-30)">
          <path id="Path_2479" data-name="Path 2479" d="M71.226,0a40.7,40.7,0,1,1,0,81.4C48.75,81.4,0,63.18,0,40.7S48.75,0,71.226,0Z" transform="translate(0 0)" fill="none"/>
          <path id="Path_2480" data-name="Path 2480" d="M71.23,23.082c-14.318,0-38.855,10.259-46.617,17.619,7.762,7.36,32.3,17.619,46.617,17.619a17.619,17.619,0,0,0,0-35.237M71.23,0a40.7,40.7,0,1,1,0,81.4C48.75,81.4,0,63.18,0,40.7S48.75,0,71.23,0Z" transform="translate(0 0)" fill="#2095f2"/>
        </g>
      </g>
    </g>
    <text id="Ovrok" transform="translate(293 531)" fill="#fff" font-size="125" font-family="Poppins-SemiBold, Poppins" font-weight="600"><tspan x="0" y="0">Ovrok</tspan></text>
  </g>
</svg>
