<svg xmlns="http://www.w3.org/2000/svg" xmlns:xlink="http://www.w3.org/1999/xlink" width="1545.43" height="1587.299" viewBox="0 0 1545.43 1587.299">
  <defs>
    <clipPath id="clip-path">
      <rect id="Rectangle_198" data-name="Rectangle 198" width="1319.507" height="805.123" transform="translate(-0.757 -0.92)" fill="#fff"/>
    </clipPath>
  </defs>
  <g id="Group_2575" data-name="Group 2575" transform="translate(585.43)">
    <rect id="area" width="960" height="969" fill="#2a3950"/>
    <g id="Mask_Group_1" data-name="Mask Group 1" transform="translate(-182.673 231.465) rotate(30)" opacity="0.02" clip-path="url(#clip-path)">
      <g id="Group_3261" transform="translate(24.31 -111.324)">
        <g id="Subtraction_21" transform="translate(0 129.785)">
          <path id="Path_2477" data-name="Path 2477" d="M1138.944,997.683a1085.1,1085.1,0,0,1-246.289-31.126A782.09,782.09,0,0,1,694.64,893.569c-169.878-98.1-228.047-315.333-129.976-485.183a355.049,355.049,0,0,1,485.1-129.92A850.359,850.359,0,0,1,1244.985,449.64a922.094,922.094,0,0,0-154.43,235.9c-36.708,87.024-40.506,160.04-10.959,211.162,27.359,47.382,83,78.566,165.392,92.692A629.606,629.606,0,0,1,1138.944,997.683Z" transform="translate(-516.942 -230.833)" fill="none"/>
          <path id="Path_2478" data-name="Path 2478" d="M916.233,824.13c-1.179-53.768,9.75-118.383,41.857-194.505,22.784-54.056,55.7-111.91,95.946-169.332-27.475-24.482-53.655-44.275-76.12-57.249A211.25,211.25,0,1,0,766.639,768.923c34.26,19.821,88.372,39.73,149.594,55.207m222.784,173.5c-75.718,0-163.176-11.048-246.288-31.128-79.4-19.189-149.711-45.108-198.014-72.986a355.194,355.194,0,0,1,2.587-616.6,354.9,354.9,0,0,1,352.5,1.553c58.457,33.747,129.6,96.146,195.222,171.174-68.44,78.279-123.272,162.025-154.428,235.875-36.707,87.025-40.506,160.04-10.959,211.161,27.356,47.382,82.995,78.566,165.39,92.692C1213.038,994.872,1177.367,997.635,1139.017,997.635Z" transform="translate(-517.014 -230.784)" fill="#fff"/>
        </g>
        <g id="Path_2466" transform="translate(201.243 488.261) rotate(-30)">
          <path id="Path_2479" data-name="Path 2479" d="M621.4,0C817.518,0,976.493,158.975,976.493,355.091S817.518,710.181,621.4,710.181C425.315,710.181,0,551.206,0,355.091S425.316,0,621.4,0Z" transform="translate(0 0)" fill="none"/>
          <path id="Path_2480" data-name="Path 2480" d="M621.432,201.38c-124.914,0-338.981,89.5-406.7,153.711,67.721,64.21,281.789,153.71,406.7,153.71,84.753,0,153.71-68.958,153.71-153.71S706.185,201.38,621.432,201.38m0-201.38C817.547,0,976.523,158.975,976.523,355.091s-158.975,355.09-355.091,355.09S0,551.206,0,355.091,425.316,0,621.432,0Z" transform="translate(0 0)" fill="#fff"/>
        </g>
      </g>
    </g>
  </g>
</svg>
