<svg id="open-collective" xmlns="http://www.w3.org/2000/svg" width="16" height="16" viewBox="0 0 16 16">
  <path id="Path_941" data-name="Path 941" d="M16.682,15.15l1.7,2a9.281,9.281,0,0,0,1.751-5.511,9.3,9.3,0,0,0-1.7-5.44l-1.706,2a6.393,6.393,0,0,1-.05,6.957Z" transform="translate(-4.136 -3.639)" fill="#fff" opacity="0.5"/>
  <path id="Path_942" data-name="Path 942" d="M14.5,15.217a5.5,5.5,0,0,1-3.334,1.116A5.39,5.39,0,0,1,5.723,11a5.39,5.39,0,0,1,5.445-5.333,5.493,5.493,0,0,1,3.406,1.172l1.933-1.893A8.236,8.236,0,0,0,11.168,3,8.085,8.085,0,0,0,3,11a8.085,8.085,0,0,0,8.168,8,8.237,8.237,0,0,0,5.269-1.887Z" transform="translate(-3 -3)" fill="#fff"/>
</svg>
