<svg xmlns="http://www.w3.org/2000/svg" width="16" height="16" viewBox="0 0 16 16">
  <g id="Group_81" data-name="Group 81" transform="translate(0 0)">
    <rect id="Rectangle_33" data-name="Rectangle 33" width="16" height="16" fill="#c1c1c1" opacity="0"/>
    <path id="Vector" d="M4.585,0C3.289,0,.931,1.243.857,2.352s.151,1.177.256,1.237H2.329a1.4,1.4,0,0,1,1.5-.987A1.643,1.643,0,0,1,5.283,4.7c-.411.983-.79,1.326-1.3,2.389A4.78,4.78,0,0,0,3.977,11.1l1.5.027C5.1,9.218,7.068,7.52,7.849,6.346a3.8,3.8,0,0,0,.864-2.592A3.719,3.719,0,0,0,7.646,1.162,4.127,4.127,0,0,0,4.585,0Zm.075,12.368a1.816,1.816,0,1,0,1.813,1.813,1.812,1.812,0,0,0-1.813-1.813Z" transform="translate(3.158 0)" fill="#c1c1c1"/>
  </g>
</svg>
