<svg id="user" xmlns="http://www.w3.org/2000/svg" width="10.4" height="16" viewBox="0 0 10.4 16">
  <path id="Path_1384" data-name="Path 1384" d="M15.2,6.2a3.418,3.418,0,0,1-3.6,3.2A3.418,3.418,0,0,1,8,6.2,3.418,3.418,0,0,1,11.6,3,3.418,3.418,0,0,1,15.2,6.2Zm-1.8,0a1.709,1.709,0,0,1-1.8,1.6A1.709,1.709,0,0,1,9.8,6.2a1.709,1.709,0,0,1,1.8-1.6A1.709,1.709,0,0,1,13.4,6.2Z" transform="translate(-6.4 -3)" fill="#fff" fill-rule="evenodd"/>
  <path id="Path_1385" data-name="Path 1385" d="M14.667,14.4a.835.835,0,0,0-.867-.8H8.6a.835.835,0,0,0-.867.8v4.8H6V14.4A2.506,2.506,0,0,1,8.6,12h5.2a2.506,2.506,0,0,1,2.6,2.4v4.8H14.667Z" transform="translate(-6 -3.2)" fill="#fff"/>
</svg>
